<svg id="Capa_1" data-name="Capa 1" xmlns="http://www.w3.org/2000/svg" viewBox="0 0 46.42 18.63"><path d="M71.46,34.53l0,0,.79,0,1.55,0a4.11,4.11,0,0,1,1.09.12,2,2,0,0,1,.75.43,2.25,2.25,0,0,1,.51.72,2.29,2.29,0,0,1,.17.87,2.73,2.73,0,0,1-.16.88,2.55,2.55,0,0,1-.44.79,2.52,2.52,0,0,1-.66.56,2.44,2.44,0,0,1-.73.28,3.84,3.84,0,0,1-.76.07c-.17,0-.49,0-1,0h-.31c-.16,0-.34,0-.56,0l0,0v-.11l0,0,.23-.12a3.74,3.74,0,0,0,0-.58c0-.37,0-.66,0-.85v-2c0-.17,0-.3,0-.4a1,1,0,0,0,0-.22.34.34,0,0,0,0-.1l-.07,0-.16,0-.26,0,0,0Zm1.22,4.33a4.52,4.52,0,0,0,.78.07,2.57,2.57,0,0,0,1.24-.26,1.62,1.62,0,0,0,.69-.77,2.64,2.64,0,0,0,.23-1.14,2,2,0,0,0-.5-1.46,2.09,2.09,0,0,0-1.58-.52,4.83,4.83,0,0,0-.86.07c0,.36,0,.77,0,1.22v2C72.66,38.28,72.67,38.54,72.68,38.86Z" transform="translate(-68.69 -34.14)"/><path d="M71.7,39.35l-.1-.1V39l.1-.1.17-.09a4.4,4.4,0,0,0,0-.51c0-.37,0-.65,0-.84V35.13c0-.12,0-.17,0-.19a.12.12,0,0,0,0,0l-.15,0-.29,0-.1-.09v-.28l.11-.09h0l.78,0,1.55,0a4.3,4.3,0,0,1,1.12.13,2.05,2.05,0,0,1,.81.46,2.22,2.22,0,0,1,.53.76,2.32,2.32,0,0,1,.18.92,2.66,2.66,0,0,1-.16.92,2.71,2.71,0,0,1-.47.83,2.66,2.66,0,0,1-.68.58,2.51,2.51,0,0,1-.78.3,4,4,0,0,1-.78.08l-1,0h-.3l-.55,0Zm.61-.28h.31l1,0a4.3,4.3,0,0,0,.73-.07,2.41,2.41,0,0,0,.7-.27,2.6,2.6,0,0,0,.62-.53,2.58,2.58,0,0,0,.57-1.59,2,2,0,0,0-.16-.82,2,2,0,0,0-.47-.67,1.7,1.7,0,0,0-.71-.41,3.79,3.79,0,0,0-1.05-.12l-1.55,0h-.33a.25.25,0,0,1,.13.09.53.53,0,0,1,.06.13c0,.06,0,.14,0,.25V37.5c0,.19,0,.48,0,.85,0,.61,0,.63-.09.67a.28.28,0,0,1-.1.06Zm1.15,0a3.84,3.84,0,0,1-.8-.07l-.1,0v-.09c0-.33,0-.59,0-.78v-2c0-.45,0-.87,0-1.23v-.1l.11,0a6.13,6.13,0,0,1,.87-.07,2.24,2.24,0,0,1,1.67.56,2.13,2.13,0,0,1,.54,1.55A2.84,2.84,0,0,1,75.51,38a1.84,1.84,0,0,1-.75.83A2.67,2.67,0,0,1,73.46,39.05Zm-.65-.3a3.24,3.24,0,0,0,.65,0,2.44,2.44,0,0,0,1.18-.24,1.43,1.43,0,0,0,.64-.71,2.72,2.72,0,0,0,.22-1.09A1.92,1.92,0,0,0,75,35.38a2,2,0,0,0-1.49-.48,6,6,0,0,0-.74.05c0,.34,0,.72,0,1.12v2C72.79,38.26,72.79,38.48,72.81,38.75Z" transform="translate(-68.69 -34.14)"/><path d="M79.55,38.71l-.1.24a2.18,2.18,0,0,1-.62.28,1.79,1.79,0,0,1-.48.07,1.94,1.94,0,0,1-.76-.15,1.28,1.28,0,0,1-.58-.53,1.72,1.72,0,0,1-.22-.9,2.47,2.47,0,0,1,.08-.63,1.82,1.82,0,0,1,.18-.41,1.25,1.25,0,0,1,.33-.31,1.81,1.81,0,0,1,.47-.26,1.42,1.42,0,0,1,.55-.1,1.27,1.27,0,0,1,.7.19,1,1,0,0,1,.43.48,1.59,1.59,0,0,1,.12.62,1.41,1.41,0,0,1,0,.2l0,0a2.91,2.91,0,0,1-.6.07H77.42a1.39,1.39,0,0,0,.35,1,1.18,1.18,0,0,0,.83.32,1.16,1.16,0,0,0,.45-.08,2.31,2.31,0,0,0,.45-.22Zm-2.13-1.36.46,0,.6,0a5.21,5.21,0,0,0,.56,0v-.12a1.18,1.18,0,0,0-.21-.77.7.7,0,0,0-.57-.25.72.72,0,0,0-.61.28A1.33,1.33,0,0,0,77.42,37.35Z" transform="translate(-68.69 -34.14)"/><path d="M78.35,39.43a2,2,0,0,1-.81-.17,1.42,1.42,0,0,1-.64-.58,1.82,1.82,0,0,1-.24-1,2.24,2.24,0,0,1,.09-.66,2.07,2.07,0,0,1,.2-.46,1.62,1.62,0,0,1,.35-.33,2.53,2.53,0,0,1,.51-.28,1.63,1.63,0,0,1,.59-.11,1.44,1.44,0,0,1,.77.21,1.16,1.16,0,0,1,.47.54,1.67,1.67,0,0,1,.13.67,1.48,1.48,0,0,1,0,.21v0l-.09.1h0a3.24,3.24,0,0,1-.63.07l-.51,0h-.94a1.2,1.2,0,0,0,.31.8,1,1,0,0,0,.74.29,1.29,1.29,0,0,0,.4-.07,3,3,0,0,0,.44-.22l.08,0,.18.19-.16.35,0,0a2.22,2.22,0,0,1-.65.31A2.58,2.58,0,0,1,78.35,39.43Zm-.75-3.06-.15.1a1.3,1.3,0,0,0-.29.28,1.54,1.54,0,0,0-.17.38,2.1,2.1,0,0,0-.08.59,1.53,1.53,0,0,0,.21.83,1.14,1.14,0,0,0,.52.48,1.71,1.71,0,0,0,.71.15,1.6,1.6,0,0,0,.45-.07,1.76,1.76,0,0,0,.42-.17l-.13.05a1.33,1.33,0,0,1-.49.09,1.28,1.28,0,0,1-.92-.36,1.47,1.47,0,0,1-.38-1.1v-.13h.37l-.26,0H77.3v-.11a1.41,1.41,0,0,1,.25-.91A.18.18,0,0,1,77.6,36.37Zm.92-.23a.78.78,0,0,1,.41.26,1.31,1.31,0,0,1,.24.85.34.34,0,0,1,0,.09v.12l.36,0V37.3a1.4,1.4,0,0,0-.11-.58A.9.9,0,0,0,79,36.3,1.09,1.09,0,0,0,78.52,36.14Zm-1,1.09.34,0h1a1.09,1.09,0,0,0-.18-.69.58.58,0,0,0-.48-.2.62.62,0,0,0-.52.23A1.21,1.21,0,0,0,77.55,37.23Z" transform="translate(-68.69 -34.14)"/><path d="M81.57,39.25l-.21-.52-.24-.56-.68-1.59a.92.92,0,0,0-.12-.2.15.15,0,0,0-.11-.06.78.78,0,0,0-.21,0l0,0v-.14l0,0c.31,0,.56,0,.74,0s.52,0,.77,0l0,0v.14l0,0a1.11,1.11,0,0,0-.4.05.12.12,0,0,0,0,.1,1.43,1.43,0,0,0,.13.42l.4,1,.32.76.34-.76.27-.68a5.19,5.19,0,0,0,.21-.55.92.92,0,0,0,0-.22.09.09,0,0,0-.07-.09,1.62,1.62,0,0,0-.37,0l0,0v-.14l0,0c.28,0,.48,0,.62,0s.31,0,.59,0l0,0v.14l0,0a.57.57,0,0,0-.26.06.28.28,0,0,0-.13.15c0,.08-.16.31-.35.71l-.32.68c-.06.12-.25.57-.58,1.35Z" transform="translate(-68.69 -34.14)"/><path d="M82,39.38h-.52l-.23-.6-.93-2.15c0-.12-.08-.16-.09-.16l0,0H80l-.1-.09v-.25L80,36H80l.73,0,.77,0h0l.11.11v.25l-.1.09h0c-.27,0-.34,0-.34,0a1.93,1.93,0,0,0,.13.37l.61,1.49.21-.49.27-.68a4.5,4.5,0,0,0,.21-.54.9.9,0,0,0,0-.15,1,1,0,0,0-.31,0h0l-.1-.09v-.25l.11-.11h0L83,36l.59,0h0l.11.11v.25l-.1.09h0a1,1,0,0,0-.21,0,.31.31,0,0,0-.08.11c0,.08-.16.31-.35.71L82.6,38,82,39.3Zm-.35-.25h.18c0-.06,0-.13.08-.18l-.43-1-.41-1a1.61,1.61,0,0,1-.14-.47.23.23,0,0,1,.11-.2h-.69l.06,0a.79.79,0,0,1,.14.24Zm1.14-2.88a.2.2,0,0,1,.11.18,1.2,1.2,0,0,1-.05.25q-.06.18-.21.57l-.13.31.18-.39.36-.72a.5.5,0,0,1,.17-.2h-.43Z" transform="translate(-68.69 -34.14)"/><path d="M86.53,38.71l-.1.24a2.18,2.18,0,0,1-.62.28,1.79,1.79,0,0,1-.48.07,1.94,1.94,0,0,1-.76-.15,1.34,1.34,0,0,1-.58-.53,1.72,1.72,0,0,1-.22-.9,2.08,2.08,0,0,1,.09-.63,1.22,1.22,0,0,1,.18-.41,1.19,1.19,0,0,1,.32-.31,2,2,0,0,1,.47-.26,1.42,1.42,0,0,1,.55-.1,1.27,1.27,0,0,1,.7.19,1,1,0,0,1,.43.48,1.59,1.59,0,0,1,.12.62,1.41,1.41,0,0,1,0,.2l0,0a2.91,2.91,0,0,1-.6.07H84.41a1.39,1.39,0,0,0,.34,1,1.18,1.18,0,0,0,.83.32,1.12,1.12,0,0,0,.45-.08,2.31,2.31,0,0,0,.45-.22Zm-2.12-1.36.46,0,.59,0a5.06,5.06,0,0,0,.56,0v-.12a1.18,1.18,0,0,0-.21-.77.7.7,0,0,0-.57-.25.72.72,0,0,0-.61.28A1.34,1.34,0,0,0,84.41,37.35Z" transform="translate(-68.69 -34.14)"/><path d="M85.33,39.43a2.06,2.06,0,0,1-.81-.17,1.35,1.35,0,0,1-.63-.58,1.83,1.83,0,0,1-.25-1,2,2,0,0,1,.1-.66,1.72,1.72,0,0,1,.19-.46,1.62,1.62,0,0,1,.35-.33,2.53,2.53,0,0,1,.51-.28,1.63,1.63,0,0,1,.59-.11,1.44,1.44,0,0,1,.77.21,1.16,1.16,0,0,1,.47.54,1.67,1.67,0,0,1,.13.67,1.48,1.48,0,0,1,0,.21v0l-.09.1h0a3.24,3.24,0,0,1-.63.07l-.51,0h-.93a1.15,1.15,0,0,0,.3.8,1,1,0,0,0,.74.29,1.29,1.29,0,0,0,.4-.07,2.25,2.25,0,0,0,.44-.22l.08,0,.18.19-.15.35,0,0a2.26,2.26,0,0,1-.66.31A2.58,2.58,0,0,1,85.33,39.43Zm-.75-3.06-.15.1a1.3,1.3,0,0,0-.29.28,1.27,1.27,0,0,0-.16.38,1.78,1.78,0,0,0-.09.59,1.53,1.53,0,0,0,.21.83,1.14,1.14,0,0,0,.52.48,1.71,1.71,0,0,0,.71.15,1.6,1.6,0,0,0,.45-.07,2,2,0,0,0,.42-.17l-.13.05a1.33,1.33,0,0,1-.49.09,1.24,1.24,0,0,1-.91-.36,1.47,1.47,0,0,1-.39-1.1v-.13h.37l-.26,0h-.11v-.11a1.41,1.41,0,0,1,.25-.91Zm.92-.23a.78.78,0,0,1,.41.26,1.29,1.29,0,0,1,.24.85.57.57,0,0,1,0,.12v.09l.36,0V37.3a1.43,1.43,0,0,0-.11-.58A.93.93,0,0,0,86,36.3,1.17,1.17,0,0,0,85.5,36.14Zm-1,1.09.34,0h1a1.06,1.06,0,0,0-.18-.69.58.58,0,0,0-.48-.2.59.59,0,0,0-.51.23A1.13,1.13,0,0,0,84.53,37.23Z" transform="translate(-68.69 -34.14)"/><path d="M88.1,34.28l.06,0c0,.25,0,.76,0,1.53v2.08s0,.21,0,.47a4.32,4.32,0,0,0,0,.46.19.19,0,0,0,0,.1l.07,0,.36,0,0,0v.14l0,0c-.28,0-.55,0-.8,0s-.52,0-.8,0l0,0v-.14l0,0,.36,0a.18.18,0,0,0,.08,0,.19.19,0,0,0,0-.09s0-.19,0-.43,0-.43,0-.55V35.46q0-.37,0-.51c0-.1,0-.16,0-.17s0,0-.07,0a2.22,2.22,0,0,0-.4,0l0,0v-.14l0,0A4.14,4.14,0,0,0,88.1,34.28Z" transform="translate(-68.69 -34.14)"/><path d="M88.7,39.35h-.06a10.42,10.42,0,0,0-1.58,0H87l-.11-.11V39l.11-.1h0a1.49,1.49,0,0,0,.34,0s0,0,0,0,0-.09,0-.42,0-.42,0-.54V35.46c0-.24,0-.41,0-.5s0-.08,0-.1H87l-.1-.1v-.24l.09-.1h0a4.32,4.32,0,0,0,1-.24l.06,0,.18.11v.08c0,.26,0,.77,0,1.52v2.08s0,.2,0,.47a2,2,0,0,0,0,.43.06.06,0,0,0,0,0l.35,0h0l.11.1v.24ZM87.36,34.6l.11,0a.19.19,0,0,1,.14.09.46.46,0,0,1,0,.23c0,.09,0,.26,0,.51v2.43c0,.13,0,.31,0,.55a2.56,2.56,0,0,1,0,.45.34.34,0,0,1-.07.16l0,0h.61l0,0a.34.34,0,0,1-.08-.16,3.3,3.3,0,0,1,0-.49c0-.26,0-.42,0-.47V35.85q0-1,0-1.41A3.88,3.88,0,0,1,87.36,34.6Z" transform="translate(-68.69 -34.14)"/><path d="M89.06,37.67a1.85,1.85,0,0,1,.16-.76,1.54,1.54,0,0,1,.57-.63,1.69,1.69,0,0,1,1-.27,1.51,1.51,0,0,1,1.57,1.57,1.69,1.69,0,0,1-1.72,1.74,1.42,1.42,0,0,1-.83-.25,1.57,1.57,0,0,1-.54-.61A1.86,1.86,0,0,1,89.06,37.67Zm.63-.22a2.68,2.68,0,0,0,.12.83,1.26,1.26,0,0,0,.38.59.92.92,0,0,0,.59.22.78.78,0,0,0,.64-.31,1.46,1.46,0,0,0,.26-.94,2.11,2.11,0,0,0-.28-1.15.87.87,0,0,0-.8-.46.81.81,0,0,0-.67.32A1.42,1.42,0,0,0,89.69,37.45Z" transform="translate(-68.69 -34.14)"/><path d="M90.6,39.45a1.59,1.59,0,0,1-.9-.27,1.74,1.74,0,0,1-.58-.66,2,2,0,0,1-.18-.85,1.9,1.9,0,0,1,.17-.81,1.72,1.72,0,0,1,.61-.69,1.83,1.83,0,0,1,1-.28,1.63,1.63,0,0,1,1.7,1.69,1.83,1.83,0,0,1-1.85,1.87ZM90,36.3l-.14.08a1.42,1.42,0,0,0-.52.58,1.78,1.78,0,0,0-.15.71,1.64,1.64,0,0,0,.16.74,1.38,1.38,0,0,0,.49.56,1.36,1.36,0,0,0,.76.23,1,1,0,0,1-.5-.24,1.34,1.34,0,0,1-.41-.64,2.94,2.94,0,0,1-.13-.87,1.57,1.57,0,0,1,.27-1A1.37,1.37,0,0,1,90,36.3Zm.88-.16a1.06,1.06,0,0,1,.63.48,2.27,2.27,0,0,1,.29,1.22,1.57,1.57,0,0,1-.28,1,.85.85,0,0,1-.17.16,1.61,1.61,0,0,0,.38-.28,1.54,1.54,0,0,0,.47-1.16,1.39,1.39,0,0,0-1.32-1.44Zm-.28.22a.69.69,0,0,0-.57.26,1.3,1.3,0,0,0-.22.83,2.43,2.43,0,0,0,.12.79,1.09,1.09,0,0,0,.34.53.74.74,0,0,0,.51.19.68.68,0,0,0,.55-.26,1.34,1.34,0,0,0,.22-.86,2.09,2.09,0,0,0-.25-1.09A.78.78,0,0,0,90.6,36.36Z" transform="translate(-68.69 -34.14)"/><path d="M93.77,36l.07,0c0,.25,0,.48,0,.67q.45-.41.63-.54A1,1,0,0,1,95,36a1.59,1.59,0,0,1,.5.08,1.11,1.11,0,0,1,.41.25,1.33,1.33,0,0,1,.3.42,1.57,1.57,0,0,1,.11.6,1.61,1.61,0,0,1-.08.48,2.13,2.13,0,0,1-.2.46,1.37,1.37,0,0,1-.2.28,2.43,2.43,0,0,1-.31.2,4.81,4.81,0,0,0-.41.27l-.2.14-.19,0a1.27,1.27,0,0,1-.28,0,1.47,1.47,0,0,1-.69-.17v.71s0,.2,0,.47a4.58,4.58,0,0,0,0,.46.15.15,0,0,0,0,.09.1.1,0,0,0,.07,0l.36,0,0,0v.14l0,0-.79,0-.8,0,0,0v-.14l0,0,.36,0,.07,0s0-.05,0-.1,0-.2,0-.45,0-.43,0-.56V37.19c0-.12,0-.25,0-.4a2.46,2.46,0,0,0,0-.27.13.13,0,0,0,0-.06.49.49,0,0,0-.17,0h-.28l0,0v-.14l0,0A3.94,3.94,0,0,0,93.77,36Zm0,2.55a1.61,1.61,0,0,0,.38.27,1.18,1.18,0,0,0,.5.11,1,1,0,0,0,.57-.16,1.09,1.09,0,0,0,.38-.48,1.74,1.74,0,0,0,.14-.69,1.27,1.27,0,0,0-.13-.58.92.92,0,0,0-.37-.41,1,1,0,0,0-.88-.1,1.23,1.23,0,0,0-.31.19.84.84,0,0,0-.21.22.6.6,0,0,0-.07.18v1.45Z" transform="translate(-68.69 -34.14)"/><path d="M94.38,41.24h-.07a13.71,13.71,0,0,0-1.57,0h-.06l-.11-.11v-.25l.11-.09h0l.34,0s0,0,0,0a2.3,2.3,0,0,0,0-.43c0-.25,0-.44,0-.56V37.19c0-.12,0-.25,0-.4s0-.19,0-.23h-.43l-.1-.09v-.25l.09-.1h0a4.32,4.32,0,0,0,1-.24l.06,0L94,36V36c0,.14,0,.26,0,.37a3.7,3.7,0,0,1,.41-.35A1.15,1.15,0,0,1,95,35.9a1.8,1.8,0,0,1,.54.08,1.5,1.5,0,0,1,.45.27,1.43,1.43,0,0,1,.33.47,1.67,1.67,0,0,1,.12.65,1.88,1.88,0,0,1-.08.52,2.32,2.32,0,0,1-.21.48,1.69,1.69,0,0,1-.22.31l-.33.22-.41.26-.21.15-.22.07a1.47,1.47,0,0,1-.87-.08v.52s0,.2,0,.46,0,.42,0,.44a.11.11,0,0,0,0,0l.35,0h0l.1.09v.24Zm-1.33-4.92a.3.3,0,0,1,.18,0,.22.22,0,0,1,.1.13,1.73,1.73,0,0,1,0,.29c0,.15,0,.29,0,.41v2.54c0,.13,0,.32,0,.57a2.63,2.63,0,0,1,0,.46.3.3,0,0,1-.08.17l0,0h.61l0,0a.27.27,0,0,1-.08-.15,3.65,3.65,0,0,1,0-.49c0-.27,0-.42,0-.47V38.9l.18.1a1.34,1.34,0,0,0,.88.13.38.38,0,0,0,.16-.05L95,39a1.33,1.33,0,0,1-.92-.08,1.4,1.4,0,0,1-.41-.3l0,0v-1.5a.35.35,0,0,1,0-.14l0,0V36.7c0-.16,0-.34,0-.55A4.7,4.7,0,0,1,93.05,36.32Zm.88,2.16a1.23,1.23,0,0,0,.31.22,1.05,1.05,0,0,0,.44.1.94.94,0,0,0,.5-.14,1.07,1.07,0,0,0,.34-.43,1.62,1.62,0,0,0,.12-.64,1.27,1.27,0,0,0-.11-.52.83.83,0,0,0-.32-.37.94.94,0,0,0-.78-.08.92.92,0,0,0-.27.16A.63.63,0,0,0,94,37a.34.34,0,0,0,0,.12v1.38Zm.8-2.16a1.16,1.16,0,0,1,.6.17,1,1,0,0,1,.43.47,1.45,1.45,0,0,1,.13.63,1.78,1.78,0,0,1-.15.74,1.08,1.08,0,0,1-.2.33,1.36,1.36,0,0,0,.26-.17,1.39,1.39,0,0,0,.17-.25,2,2,0,0,0,.19-.42,1.41,1.41,0,0,0,.07-.45,1.35,1.35,0,0,0-.1-.55.94.94,0,0,0-.27-.38,1,1,0,0,0-.36-.22,1.35,1.35,0,0,0-.46-.07.94.94,0,0,0-.54.11l-.16.13h0A1,1,0,0,1,94.73,36.32Z" transform="translate(-68.69 -34.14)"/><path d="M99.57,38.71l-.11.24a2.06,2.06,0,0,1-.62.28,1.79,1.79,0,0,1-.48.07,1.9,1.9,0,0,1-.75-.15,1.28,1.28,0,0,1-.58-.53,1.72,1.72,0,0,1-.23-.9,2.08,2.08,0,0,1,.09-.63,1.82,1.82,0,0,1,.18-.41,1.19,1.19,0,0,1,.32-.31,1.87,1.87,0,0,1,.48-.26,1.4,1.4,0,0,1,.54-.1,1.25,1.25,0,0,1,.7.19,1,1,0,0,1,.43.48,1.59,1.59,0,0,1,.12.62,1.41,1.41,0,0,1,0,.2l0,0a3,3,0,0,1-.61.07H97.44a1.39,1.39,0,0,0,.34,1,1.2,1.2,0,0,0,.83.32,1.12,1.12,0,0,0,.45-.08,2.31,2.31,0,0,0,.45-.22Zm-2.13-1.36.46,0,.59,0a4.92,4.92,0,0,0,.56,0s0-.09,0-.12a1.18,1.18,0,0,0-.21-.77.7.7,0,0,0-.57-.25.73.73,0,0,0-.62.28A1.34,1.34,0,0,0,97.44,37.35Z" transform="translate(-68.69 -34.14)"/><path d="M98.36,39.43a2,2,0,0,1-.8-.17,1.33,1.33,0,0,1-.64-.58,1.82,1.82,0,0,1-.24-1,2.24,2.24,0,0,1,.09-.66,1.43,1.43,0,0,1,.2-.46,1.79,1.79,0,0,1,.34-.33,2.53,2.53,0,0,1,.51-.28,1.63,1.63,0,0,1,.59-.11,1.41,1.41,0,0,1,.77.21,1.24,1.24,0,0,1,.48.54,1.86,1.86,0,0,1,.13.67,1.48,1.48,0,0,1,0,.21v0l-.09.1h0a3.24,3.24,0,0,1-.63.07l-.51,0h-.93a1.15,1.15,0,0,0,.3.8,1,1,0,0,0,.74.29,1.41,1.41,0,0,0,.41-.07,2.93,2.93,0,0,0,.43-.22l.09,0,.17.19-.15.35,0,0a2.34,2.34,0,0,1-.65.31A2.77,2.77,0,0,1,98.36,39.43Zm-.74-3.06-.16.1a2,2,0,0,0-.29.28,1.59,1.59,0,0,0-.16.38,1.79,1.79,0,0,0-.08.59,1.62,1.62,0,0,0,.2.83,1.11,1.11,0,0,0,.53.48,1.66,1.66,0,0,0,.7.15,1.55,1.55,0,0,0,.45-.07,1.76,1.76,0,0,0,.42-.17L99.1,39a1.33,1.33,0,0,1-.49.09,1.26,1.26,0,0,1-.91-.36,1.51,1.51,0,0,1-.39-1.1v-.13h.37l-.26,0h-.11v-.11a1.47,1.47,0,0,1,.25-.91Zm.92-.23a.76.76,0,0,1,.4.26,1.29,1.29,0,0,1,.24.85v.21l.36,0a.49.49,0,0,0,0-.12,1.4,1.4,0,0,0-.12-.58.88.88,0,0,0-.37-.42A1.09,1.09,0,0,0,98.54,36.14Zm-1,1.09.33,0h1a1.06,1.06,0,0,0-.18-.69.57.57,0,0,0-.47-.2.6.6,0,0,0-.52.23A1.06,1.06,0,0,0,97.57,37.23Z" transform="translate(-68.69 -34.14)"/><path d="M102.12,34.69v-.14l0,0a4.14,4.14,0,0,0,1.07-.24l.06,0c0,.25,0,.76,0,1.53V38c0,.23,0,.42,0,.59a.71.71,0,0,0,0,.3.2.2,0,0,0,.1.07,1.67,1.67,0,0,0,.38.06l0,0v.12l0,0-.55,0-.52,0,0,0c0-.22,0-.37,0-.46V38.6q-.18.13-.36.3a4.42,4.42,0,0,1-.36.3,1,1,0,0,1-.43.07,1.31,1.31,0,0,1-.78-.22,1.25,1.25,0,0,1-.46-.58,2,2,0,0,1-.13-.72,1.78,1.78,0,0,1,.14-.72,1,1,0,0,1,.4-.5q.26-.16.57-.33a1.19,1.19,0,0,1,.61-.18,1.62,1.62,0,0,1,.8.21v-.74c0-.25,0-.43,0-.53a.38.38,0,0,0,0-.18.09.09,0,0,0-.06,0,2.47,2.47,0,0,0-.41,0Zm.57,2.11a1.52,1.52,0,0,0-.46-.35,1,1,0,0,0-.5-.13,1,1,0,0,0-.52.15.94.94,0,0,0-.35.45,2,2,0,0,0-.1.65,1.42,1.42,0,0,0,.29.93.91.91,0,0,0,.74.35.77.77,0,0,0,.43-.11.94.94,0,0,0,.45-.68c0-.12,0-.35,0-.69Z" transform="translate(-68.69 -34.14)"/><path d="M101.54,39.4a1.4,1.4,0,0,1-1.35-.88,2,2,0,0,1-.15-.77,2,2,0,0,1,.15-.76,1.2,1.2,0,0,1,.45-.57l.58-.33a1.48,1.48,0,0,1,1.34-.06V35.5c0-.26,0-.43,0-.53a.73.73,0,0,0,0-.13s-.06,0-.36,0h-.05l-.1-.1v-.24l.09-.1h0a4.1,4.1,0,0,0,1-.24l.06,0,.18.11v.08c0,.25,0,.76,0,1.52V38c0,.22,0,.42,0,.58a1.14,1.14,0,0,0,0,.25l0,0a2.17,2.17,0,0,0,.34,0h0l.1.09v.23l-.11.11h0l-.56,0-.5,0h0l-.12-.12v0c0-.13,0-.23,0-.32l-.15.13c-.19.17-.3.27-.36.31A1.1,1.1,0,0,1,101.54,39.4ZM101,36.52l-.18.11a.92.92,0,0,0-.36.45,1.9,1.9,0,0,0-.13.67,2,2,0,0,0,.13.68,1.15,1.15,0,0,0,.41.52,1.24,1.24,0,0,0,.71.2.94.94,0,0,0,.38-.06l.18-.16a1,1,0,0,1-1.14-.35,1.5,1.5,0,0,1-.33-1,1.92,1.92,0,0,1,.12-.69A1.07,1.07,0,0,1,101,36.52Zm1.86,1.83v.26a.83.83,0,0,0,0,.12v.36l.41,0h.08a.35.35,0,0,1-.11-.1s0-.12-.06-.35,0-.37,0-.6V35.85q0-1,0-1.41a3.88,3.88,0,0,1-.67.16l.11,0a.22.22,0,0,1,.14.09.48.48,0,0,1,0,.24c0,.1,0,.28,0,.54l0,1-.19-.11a1.29,1.29,0,0,0-1.1-.12,1.21,1.21,0,0,1,.76.11,1.51,1.51,0,0,1,.49.39l0,0v.62a5.67,5.67,0,0,1,0,.71,1,1,0,0,1-.13.39Zm-1.09-1.9a.81.81,0,0,0-.45.13.72.72,0,0,0-.3.38,2,2,0,0,0-.1.61,1.27,1.27,0,0,0,.27.85.78.78,0,0,0,.64.31.66.66,0,0,0,.37-.1.65.65,0,0,0,.26-.26.68.68,0,0,0,.13-.32c0-.12,0-.36,0-.68v-.52a1.52,1.52,0,0,0-.39-.29A1.06,1.06,0,0,0,101.73,36.45Z" transform="translate(-68.69 -34.14)"/><path d="M105.7,34.72l0,0v-.14l0,0a4,4,0,0,0,1.07-.24l.07,0c0,.25,0,.76,0,1.53v.85a2.21,2.21,0,0,1,.24-.26,1.72,1.72,0,0,1,.28-.24.87.87,0,0,1,.29-.12A1.34,1.34,0,0,1,108,36a1.18,1.18,0,0,1,1.08.69,1.59,1.59,0,0,1,.13.66,1.72,1.72,0,0,1-.11.64,2,2,0,0,1-.27.49,1.45,1.45,0,0,1-.33.29,5.16,5.16,0,0,1-.65.42,1.14,1.14,0,0,1-.49.08,1.42,1.42,0,0,1-.42-.06,1.81,1.81,0,0,1-.39-.2l-.27.25-.11-.05c0-.4.07-.86.07-1.37V36.1l0-.64c0-.24,0-.41,0-.51a.54.54,0,0,0,0-.17s0,0-.07,0A2.31,2.31,0,0,0,105.7,34.72Zm1.09,2.37v1.25a.75.75,0,0,0,0,.2.46.46,0,0,0,.13.15,1.39,1.39,0,0,0,.3.17,1,1,0,0,0,.39.07.86.86,0,0,0,.74-.37,1.56,1.56,0,0,0,.26-.92,1.49,1.49,0,0,0-.11-.62.87.87,0,0,0-.33-.42,1,1,0,0,0-.5-.14.9.9,0,0,0-.58.19A.82.82,0,0,0,106.79,37.09Z" transform="translate(-68.69 -34.14)"/><path d="M106.31,39.42l-.27-.1v-.1c0-.4.06-.86.06-1.36V35.47c0-.24,0-.41,0-.51a.56.56,0,0,0,0-.1h-.41l-.11-.1v-.24l.09-.1h.05a4.32,4.32,0,0,0,1-.24l.06,0,.18.11v.08c0,.25,0,.76,0,1.52v.53l0,0a1.77,1.77,0,0,1,.3-.25,1,1,0,0,1,.33-.14,1.49,1.49,0,0,1,.43-.06,1.27,1.27,0,0,1,.72.21,1.2,1.2,0,0,1,.47.55,1.71,1.71,0,0,1,.15.71,1.91,1.91,0,0,1-.12.68,2.38,2.38,0,0,1-.29.53,1.74,1.74,0,0,1-.36.31,3.93,3.93,0,0,1-.67.43,1.21,1.21,0,0,1-.54.1,1.39,1.39,0,0,1-.46-.07,1.3,1.3,0,0,1-.33-.17Zm.23-.55.08.05a1.58,1.58,0,0,0,.36.19,1.16,1.16,0,0,0,.38.06,1.1,1.1,0,0,0,.44-.07L108,39a1.18,1.18,0,0,1-.76,0,1.2,1.2,0,0,1-.34-.18c-.1-.09-.16-.15-.17-.21a.69.69,0,0,1,0-.24V37.06h0V35.85c0-.65,0-1.12,0-1.41a3.76,3.76,0,0,1-.66.16l.1,0a.22.22,0,0,1,.14.08.51.51,0,0,1,.06.24c0,.1,0,.27,0,.52v2.4a11.59,11.59,0,0,1,0,1.22Zm.38-.37a.47.47,0,0,0,.1.09.87.87,0,0,0,.27.15,1,1,0,0,0,.34.06.73.73,0,0,0,.63-.31,1.36,1.36,0,0,0,.25-.85,1.72,1.72,0,0,0-.1-.58.77.77,0,0,0-.29-.35.8.8,0,0,0-.43-.13.82.82,0,0,0-.51.17.79.79,0,0,0-.26.36V38.5Zm.77-2.17a1,1,0,0,1,.56.17,1,1,0,0,1,.39.47,1.74,1.74,0,0,1,.12.67,1.69,1.69,0,0,1-.29,1l0,0a1.82,1.82,0,0,0,.3-.26A1.6,1.6,0,0,0,109,38a1.63,1.63,0,0,0,.11-.59,1.39,1.39,0,0,0-.13-.61,1,1,0,0,0-.37-.44,1.17,1.17,0,0,0-1-.12,1,1,0,0,0-.27.11,1.33,1.33,0,0,0-.17.14A1,1,0,0,1,107.69,36.33Z" transform="translate(-68.69 -34.14)"/><path d="M109.65,41a3.79,3.79,0,0,0,.17-.51h.08a.46.46,0,0,0,.76-.06,5.6,5.6,0,0,0,.5-1c-.09-.23-.17-.46-.26-.67l-.53-1.3c-.05-.14-.14-.33-.24-.58a4.62,4.62,0,0,0-.2-.42l-.08-.07a.89.89,0,0,0-.27-.06l0,0v-.13l0,0c.25,0,.51,0,.78,0s.56,0,.73,0l0,0v.13l0,0h-.2q-.18,0-.21.06a.11.11,0,0,0,0,.09,2.33,2.33,0,0,0,.11.37c.07.2.13.39.2.55l.21.51c.13.34.24.6.31.76l.18-.39.27-.65.27-.7a3,3,0,0,0,.12-.34.51.51,0,0,0,0-.09.09.09,0,0,0-.06-.1.6.6,0,0,0-.23,0l-.14,0,0,0v-.14l0,0c.19,0,.41,0,.66,0a4.37,4.37,0,0,0,.56,0l0,0v.14l0,0a.56.56,0,0,0-.2,0,.42.42,0,0,0-.13.11,1.84,1.84,0,0,0-.24.43c-.12.24-.23.48-.35.73l-.32.72-.77,1.79c-.07.15-.15.32-.25.5a1,1,0,0,1-.36.38.89.89,0,0,1-.45.12A.83.83,0,0,1,109.65,41Z" transform="translate(-68.69 -34.14)"/><path d="M110.05,41.23a.82.82,0,0,1-.46-.13l-.09-.05,0-.1a4,4,0,0,0,.16-.49l0-.1H110l0,0a.33.33,0,0,0,.57,0,4.76,4.76,0,0,0,.46-1c-.08-.22-.16-.42-.24-.62l-.52-1.31-.25-.57a1.88,1.88,0,0,0-.18-.39l0,0-.21,0h0l-.09-.1v-.24l.11-.1h0l.78,0,.71,0h.06l.11.11v.23l-.09.1h0l-.21,0a.26.26,0,0,0-.13,0,2.38,2.38,0,0,0,.1.33c.06.2.13.38.19.54l.21.52c.08.19.15.36.21.49l.06-.13.26-.64.28-.7.11-.32a.26.26,0,0,0,0-.07l-.17,0-.19,0-.09-.1v-.24l.1-.11h.06l.65,0,.55,0h.06l.1.11v.25l-.1.09h0a.44.44,0,0,0-.15,0,.28.28,0,0,0-.09.07,2.94,2.94,0,0,0-.22.4c-.12.24-.23.48-.35.73l-.32.72-.77,1.79a3.92,3.92,0,0,1-.25.51,1.14,1.14,0,0,1-.41.43A1,1,0,0,1,110.05,41.23Zm-.24-.29a.74.74,0,0,0,.63-.06.83.83,0,0,0,.31-.33s0-.1.08-.14l-.07.09a.58.58,0,0,1-.86.16A1.8,1.8,0,0,1,109.81,40.94Zm.1-4.7h0a.48.48,0,0,1,.11.09,4.51,4.51,0,0,1,.21.45l.25.58.53,1.31c.08.21.17.43.25.67v0l.2-.45-.12-.24c-.07-.16-.18-.41-.32-.76l-.21-.52c-.07-.16-.13-.34-.2-.55a1.69,1.69,0,0,1-.11-.41.25.25,0,0,1,.08-.18,0,0,0,0,1,0,0Zm2.4,0h0a.23.23,0,0,1,.12.22.3.3,0,0,1,0,.12,1.77,1.77,0,0,1-.12.36l-.28.7a.87.87,0,0,1-.07.17l.13-.27c.11-.25.23-.5.34-.74a2,2,0,0,1,.26-.45.42.42,0,0,1,.13-.11Z" transform="translate(-68.69 -34.14)"/><path d="M76.69,47.56c.56-.51,1-.88,1.2-1.13l.61-.61a2.77,2.77,0,0,0,.29-.31V45.3l0,0H79.9l0,0v.16l0,0a1.86,1.86,0,0,0-.43,0,1.17,1.17,0,0,0-.33.21l-.5.44L77.31,47.4l2,1.85c.32.29.5.46.54.48a.43.43,0,0,0,.24.05l0,0V50l0,0h-.94l-.53-.5c-.15-.15-.79-.74-1.93-1.78V49c0,.25,0,.41,0,.49a.27.27,0,0,0,.05.14.17.17,0,0,0,.12.06,2.36,2.36,0,0,0,.44,0l0,0V50l0,0-.58,0h-.37l-1,0,0,0v-.17l0,0,.41,0a.27.27,0,0,0,.14-.05.38.38,0,0,0,.06-.14,3.55,3.55,0,0,0,0-.45V46.21a4.42,4.42,0,0,0,0-.49c0-.07,0-.12,0-.14a.17.17,0,0,0-.12-.06,2.26,2.26,0,0,0-.44,0l0,0v-.17l0,0h.42l.53,0,.95,0,0,0v.17l0,0-.35,0a.56.56,0,0,0-.18,0,.27.27,0,0,0-.08.17c0,.09,0,.22,0,.38v1.46Z" transform="translate(-68.69 -34.14)"/><path d="M75.37,50.11l-.1-.1v-.28l.11-.08h0l.39,0,.08,0a.32.32,0,0,0,0-.06c0-.06,0-.21,0-.44V46.21c0-.25,0-.4,0-.47a.73.73,0,0,0,0-.08h0l-.06,0a2.31,2.31,0,0,0-.41,0h0l-.1-.08v-.29l.11-.09.46,0h.53l.95,0h.05l.11.09v.29l-.11.08h0l-.35,0c-.08,0-.11,0-.12,0h0a.33.33,0,0,0,0,.08,2.93,2.93,0,0,0,0,.36v1.17c.46-.41.78-.71,1-.93l.62-.61.25-.26v-.23l.11-.1h0l.55,0H80l.11.1v.26l-.1.1h0a1.57,1.57,0,0,0-.39,0,1.24,1.24,0,0,0-.29.19l-.49.43L77.5,47.4l1.89,1.75a5.79,5.79,0,0,0,.53.48.44.44,0,0,0,.17,0h.06l.09.1V50l-.1.11h-.06l-.39,0-.53,0H79.1l0,0-.53-.5L76.81,48V49a2.71,2.71,0,0,0,0,.47c0,.05,0,.08,0,.08h0l.06,0a1.65,1.65,0,0,0,.41,0h0l.11.08V50l-.11.1h-.05l-.58,0h-.37l-.94,0Zm1.43-2.49c1.12,1,1.76,1.61,1.91,1.76l.49.47.49,0h.09a4.69,4.69,0,0,1-.56-.49L77.13,47.4l1.44-1.32a5.59,5.59,0,0,1,.51-.44,1.12,1.12,0,0,1,.35-.23h-.51v.15l0,0a3.65,3.65,0,0,1-.31.33l-.61.61C77.74,46.76,77.35,47.12,76.8,47.62Zm-.86-2.21a.37.37,0,0,1,.14.08.41.41,0,0,1,.07.22,2.72,2.72,0,0,1,0,.5V49.1a3.49,3.49,0,0,1,0,.48.32.32,0,0,1-.1.2.23.23,0,0,1-.12.06h.88a.37.37,0,0,1-.14-.08.4.4,0,0,1-.08-.21,4.89,4.89,0,0,1,0-.51V46.09a3.84,3.84,0,0,1,0-.39.34.34,0,0,1,.13-.25.2.2,0,0,1,.08,0h-.86Z" transform="translate(-68.69 -34.14)"/><path d="M80.87,47.71l-.13,0,0,0v-.41a2,2,0,0,1,1.15-.44,1.22,1.22,0,0,1,.63.15.9.9,0,0,1,.37.35,1.12,1.12,0,0,1,.11.5l0,.67v1a.56.56,0,0,0,0,.24.13.13,0,0,0,.07.06l.13,0h.19l0,0V50l0,0-.45,0-.48,0,0,0,0-.54-.73.57a1,1,0,0,1-.4.07,1,1,0,0,1-.45-.09.69.69,0,0,1-.29-.27.82.82,0,0,1-.11-.42,1,1,0,0,1,.31-.76A3.73,3.73,0,0,1,82.41,48a.92.92,0,0,0-.22-.69.81.81,0,0,0-.59-.2,1.23,1.23,0,0,0-.35,0c-.11,0-.17.07-.18.1a2.48,2.48,0,0,0-.18.4Zm1.54.52a3.2,3.2,0,0,0-1.16.34.63.63,0,0,0-.23.55.45.45,0,0,0,.51.52,1.19,1.19,0,0,0,.88-.51Z" transform="translate(-68.69 -34.14)"/><path d="M81.28,50.17a1.19,1.19,0,0,1-.51-.11.81.81,0,0,1-.34-.32.92.92,0,0,1-.12-.48,1.11,1.11,0,0,1,.35-.86,3.6,3.6,0,0,1,1.62-.48.7.7,0,0,0-.18-.49.72.72,0,0,0-.5-.17,1,1,0,0,0-.31.05l-.13.06s0,.08-.16.37v0l-.07.06h-.09l-.16,0-.09-.1v-.52l.06,0a2,2,0,0,1,1.22-.46,1.33,1.33,0,0,1,.69.16,1,1,0,0,1,.42.4,1.25,1.25,0,0,1,.13.56l0,.67v1a.93.93,0,0,0,0,.18l.11,0,.23,0,.09.11V50l-.1.1h-.06a4.6,4.6,0,0,0-.91,0h0L82.27,50v-.33l-.54.42A1.13,1.13,0,0,1,81.28,50.17Zm.12-1.82a1.5,1.5,0,0,0-.58.24.87.87,0,0,0-.26.67.72.72,0,0,0,.08.35.56.56,0,0,0,.24.22,1,1,0,0,0,.74,0l.16-.13a1,1,0,0,1-.25,0,.58.58,0,0,1-.64-.65.78.78,0,0,1,.28-.65A1,1,0,0,1,81.4,48.35Zm1.14.79,0,.71H83a.27.27,0,0,1-.07-.08s0-.11,0-.31v-1l0-.67a1,1,0,0,0-.1-.44.87.87,0,0,0-.32-.31,1.43,1.43,0,0,0-1.24,0h0A1,1,0,0,1,81.6,47a.93.93,0,0,1,.67.24,1,1,0,0,1,.26.78v1.12Zm-.26-.76a2.63,2.63,0,0,0-1,.29.53.53,0,0,0-.18.45c0,.28.12.4.39.4a1,1,0,0,0,.75-.44Zm-1.45-1.09v.21l.13-.29h0Z" transform="translate(-68.69 -34.14)"/><path d="M84.84,46.8l.06,0c0,.13,0,.35,0,.68l.25-.31a1.06,1.06,0,0,1,.22-.24.54.54,0,0,1,.22-.13.58.58,0,0,1,.26-.05.66.66,0,0,1,.27.06l0,0c0,.29,0,.55-.06.77H85.9a.43.43,0,0,0-.42-.3.52.52,0,0,0-.36.13.63.63,0,0,0-.21.33,2.2,2.2,0,0,0,0,.5v.36c0,.07,0,.23,0,.49a3,3,0,0,0,0,.45.19.19,0,0,0,0,.09.2.2,0,0,0,.08,0l.48,0,0,0V50l0,0q-.45,0-.93,0l-.79,0,0,0v-.14l0,0,.36,0,.07,0a.19.19,0,0,0,0-.1s0-.18,0-.43,0-.42,0-.55V48c0-.09,0-.21,0-.36a1.28,1.28,0,0,0,0-.28.09.09,0,0,0,0-.08.32.32,0,0,0-.17,0h-.28l0,0v-.14l0,0A4.6,4.6,0,0,0,84.84,46.8Z" transform="translate(-68.69 -34.14)"/><path d="M83.74,50.11l-.11-.1v-.25l.11-.09h0l.34,0a.05.05,0,0,0,0,0,1.81,1.81,0,0,0,0-.41c0-.24,0-.42,0-.55V48c0-.09,0-.2,0-.35s0-.23,0-.27h-.43l-.1-.09V47l.09-.09h0a4.32,4.32,0,0,0,1-.24l.06,0,.18.13v.07c0,.07,0,.17,0,.3l0,0a2.19,2.19,0,0,1,.23-.26,1.1,1.1,0,0,1,.26-.15.86.86,0,0,1,.63,0l0,0,.06.12v0a5.86,5.86,0,0,0-.06.76v.13h-.36l0-.08a.32.32,0,0,0-.31-.23.4.4,0,0,0-.28.1.47.47,0,0,0-.16.27,1.57,1.57,0,0,0-.05.47v.36c0,.07,0,.23,0,.49a1.56,1.56,0,0,0,0,.42h0l0,0,.45,0h0l.1.09V50l-.1.1H85.5a13.91,13.91,0,0,0-1.71,0Zm.37-3a.4.4,0,0,1,.18,0,.24.24,0,0,1,.11.17s0,.13,0,.29,0,.28,0,.37v.65c0,.13,0,.31,0,.56s0,.41,0,.44a.3.3,0,0,1-.08.17l0,0q.33,0,.63,0l0,0a.32.32,0,0,1-.09-.15,3.56,3.56,0,0,1,0-.47c0-.26,0-.43,0-.5v-.36a2.41,2.41,0,0,1,0-.5l0,.06v-.37c0-.24,0-.43,0-.56A4.76,4.76,0,0,1,84.11,47.12Zm1.37.12a.57.57,0,0,1,.46.23c0-.16,0-.33,0-.53a.62.62,0,0,0-.38,0,.54.54,0,0,0-.18.11,1.5,1.5,0,0,0-.2.22h0A.76.76,0,0,1,85.48,47.24Z" transform="translate(-68.69 -34.14)"/><path d="M87.49,45l.06,0c0,.26,0,.77,0,1.53v2.08c0,.05,0,.21,0,.47a4.63,4.63,0,0,0,0,.47.19.19,0,0,0,0,.09.13.13,0,0,0,.07,0l.36,0,0,0V50l0,0-.8,0-.8,0,0,0v-.14l0,0,.36,0,.08,0a.19.19,0,0,0,0-.1,3.68,3.68,0,0,0,0-.43c0-.24,0-.42,0-.55V46.22c0-.24,0-.41,0-.51s0-.15,0-.17,0,0-.07,0h-.4l0,0v-.14l0,0A4.11,4.11,0,0,0,87.49,45Z" transform="translate(-68.69 -34.14)"/><path d="M88.09,50.11H88a13.88,13.88,0,0,0-1.58,0h-.06l-.11-.1v-.25l.11-.09h0l.34,0s0,0,0,0,0-.09,0-.41,0-.42,0-.55l0-2.42a5,5,0,0,0,0-.5s0-.08,0-.1h-.42l-.1-.1v-.24l.09-.1h0a3.75,3.75,0,0,0,1-.23l.06,0,.18.12v.07c0,.26,0,.77,0,1.52v2.08c0,.05,0,.21,0,.47s0,.43,0,.44a.06.06,0,0,0,0,0l.35,0h0l.11.09V50Zm-1.34-4.74h.11a.21.21,0,0,1,.13.09s.05.08.06.23,0,.27,0,.52l0,.7v1.72c0,.13,0,.31,0,.56a2.36,2.36,0,0,1,0,.44.38.38,0,0,1-.07.17l0,0c.2,0,.4,0,.61,0l0,0a.48.48,0,0,1-.08-.16s0-.08,0-.48,0-.43,0-.48V46.61q0-1,0-1.41A3.85,3.85,0,0,1,86.75,45.37Z" transform="translate(-68.69 -34.14)"/><path d="M88.93,47.71l-.13,0,0,0v-.41a2,2,0,0,1,1.15-.44,1.24,1.24,0,0,1,.64.15.87.87,0,0,1,.36.35,1,1,0,0,1,.11.5v1.66a.56.56,0,0,0,0,.24.12.12,0,0,0,.06.06l.14,0h.19l0,0V50l0,0L91,50l-.47,0-.05,0V49.4l-.72.57a1.2,1.2,0,0,1-.86,0,.76.76,0,0,1-.29-.27.82.82,0,0,1-.1-.42,1,1,0,0,1,.3-.76A3.78,3.78,0,0,1,90.47,48a.88.88,0,0,0-.22-.69.81.81,0,0,0-.59-.2,1.29,1.29,0,0,0-.35,0,.44.44,0,0,0-.18.1l-.18.4Zm1.54.52a3.2,3.2,0,0,0-1.16.34.66.66,0,0,0-.23.55.46.46,0,0,0,.52.52,1.19,1.19,0,0,0,.87-.51Z" transform="translate(-68.69 -34.14)"/><path d="M89.35,50.17a1.21,1.21,0,0,1-.52-.11.87.87,0,0,1-.34-.32,1,1,0,0,1-.12-.48,1.11,1.11,0,0,1,.35-.86,3.7,3.7,0,0,1,1.62-.48.7.7,0,0,0-.17-.49.75.75,0,0,0-.51-.17,1.06,1.06,0,0,0-.31.05l-.13.06a3,3,0,0,1-.15.37l0,0-.07.06H88.9l-.17,0-.08-.1v-.52l0,0a2,2,0,0,1,1.22-.46,1.37,1.37,0,0,1,.7.16.93.93,0,0,1,.41.4,1.13,1.13,0,0,1,.13.56l0,.67v1c0,.15,0,.18,0,.19h.1l.24,0,.09.11V50l-.11.1h-.06a4.6,4.6,0,0,0-.91,0h-.05L90.33,50v-.33l-.55.42A1,1,0,0,1,89.35,50.17Zm.11-1.82a1.35,1.35,0,0,0-.57.24.85.85,0,0,0-.27.67.63.63,0,0,0,.09.35.47.47,0,0,0,.24.22.82.82,0,0,0,.4.09.88.88,0,0,0,.33-.06l.17-.13a1.18,1.18,0,0,1-.25,0,.58.58,0,0,1-.64-.65.78.78,0,0,1,.27-.65A1.2,1.2,0,0,1,89.46,48.35Zm1.14.79,0,.71H91l-.07-.08s0-.11,0-.31v-1l0-.67a.87.87,0,0,0-.1-.44.8.8,0,0,0-.32-.31,1.4,1.4,0,0,0-1.23,0h0a1,1,0,0,1,.39-.07.92.92,0,0,1,.67.24,1,1,0,0,1,.26.78v1.12Zm-.26-.76a2.46,2.46,0,0,0-1,.29.53.53,0,0,0-.18.45c0,.28.11.4.39.4a1,1,0,0,0,.74-.44ZM88.9,47.29v.21l.13-.29h0Z" transform="translate(-68.69 -34.14)"/><path d="M91.74,45.48l0,0v-.17l0,0,.88,0,.92,0h.38a2.32,2.32,0,0,1,.71.09.88.88,0,0,1,.42.32.91.91,0,0,1,.16.51,1,1,0,0,1-.27.69,1.53,1.53,0,0,1-.86.45,2.76,2.76,0,0,1,.59.1,1.06,1.06,0,0,1,.4.19,1,1,0,0,1,.27.34,1.22,1.22,0,0,1,.1.49,1.61,1.61,0,0,1-.07.43,1.47,1.47,0,0,1-.24.44,1.73,1.73,0,0,1-.43.38,2.17,2.17,0,0,1-.52.23,3,3,0,0,1-.66.07l-.47,0h-.48L92,50l0,0v-.11l0,0,.23-.12a2.89,2.89,0,0,0,0-.59c0-.37,0-.65,0-.85v-2c0-.16,0-.3,0-.4a1,1,0,0,0,0-.22.19.19,0,0,0,0-.09l-.08,0-.16,0Zm1.2,1.74.37,0a1.46,1.46,0,0,0,1-.25.86.86,0,0,0,.27-.67.83.83,0,0,0-.11-.43.65.65,0,0,0-.32-.26,1.63,1.63,0,0,0-.6-.1,2.76,2.76,0,0,0-.54,0q0,.3,0,1.05Zm0,2.42a2.33,2.33,0,0,0,.53.06,1.54,1.54,0,0,0,.74-.15,1,1,0,0,0,.4-.42,1.45,1.45,0,0,0,.13-.59,1.08,1.08,0,0,0-.28-.77,1.68,1.68,0,0,0-1.17-.28h-.35v2.14Z" transform="translate(-68.69 -34.14)"/><path d="M92,50.11l-.1-.1v-.2l.1-.11.17-.08s0-.18,0-.51,0-.65,0-.85V45.9c0-.1,0-.17,0-.21s0,0,0,0h0l-.14,0-.29,0-.1-.08v-.28l.11-.1h0l.87,0,.92,0h.38a2.56,2.56,0,0,1,.75.09.93.93,0,0,1,.48.37,1,1,0,0,1,.18.59A1.19,1.19,0,0,1,95,47a1.31,1.31,0,0,1-.43.32l.09,0a1.17,1.17,0,0,1,.45.21,1,1,0,0,1,.3.39,1.27,1.27,0,0,1,.11.54,1.58,1.58,0,0,1-.07.47,1.46,1.46,0,0,1-.27.48,1.65,1.65,0,0,1-.46.41,2,2,0,0,1-.55.24,2.71,2.71,0,0,1-.69.07l-.48,0h-.47l-.55,0Zm.61-.28h.48l.47,0a2.28,2.28,0,0,0,.63-.07,1.67,1.67,0,0,0,.48-.21,1.47,1.47,0,0,0,.4-.34,1.23,1.23,0,0,0,.22-.4,1.49,1.49,0,0,0,.06-.4,1,1,0,0,0-.09-.44.66.66,0,0,0-.23-.29.82.82,0,0,0-.35-.17,3.09,3.09,0,0,0-.52-.09.89.89,0,0,1,.44.24,1.19,1.19,0,0,1,.3.85,1.53,1.53,0,0,1-.14.64,1.15,1.15,0,0,1-.45.48,1.67,1.67,0,0,1-.8.17,2.6,2.6,0,0,1-.56-.06l-.09,0V47.38h0v-.71c0-.49,0-.85,0-1.06v-.09l.09,0a3.18,3.18,0,0,1,.57-.05,1.71,1.71,0,0,1,.65.1.76.76,0,0,1,.38.32,1.08,1.08,0,0,1-.19,1.25l0,.05a1.29,1.29,0,0,0,.55-.34,1,1,0,0,0,.23-.6.71.71,0,0,0-.14-.45.67.67,0,0,0-.35-.27,2.4,2.4,0,0,0-.67-.08h-.38l-.92,0h-.41a.3.3,0,0,1,.11.07.34.34,0,0,1,.08.16c0,.05,0,.12,0,.24v2.37c0,.2,0,.48,0,.85,0,.6,0,.63-.08.67l-.09.06Zm.5-.29a1.75,1.75,0,0,0,.4,0,1.41,1.41,0,0,0,.68-.14.81.81,0,0,0,.34-.37,1.18,1.18,0,0,0,.12-.53.94.94,0,0,0-.24-.68c-.1-.11-.38-.25-1.08-.25h-.23Zm0-2.43h.25a1.33,1.33,0,0,0,.87-.21.72.72,0,0,0,.23-.58.74.74,0,0,0-.08-.36.54.54,0,0,0-.27-.22,1.6,1.6,0,0,0-.55-.08,2.81,2.81,0,0,0-.43,0c0,.21,0,.52,0,.94Z" transform="translate(-68.69 -34.14)"/><path d="M97.05,46.8l.07,0a5.11,5.11,0,0,0,0,.68l.24-.31a1.88,1.88,0,0,1,.22-.24.61.61,0,0,1,.22-.13.6.6,0,0,1,.26-.05.67.67,0,0,1,.28.06l0,0a5.75,5.75,0,0,0-.06.77h-.15a.45.45,0,0,0-.43-.3.55.55,0,0,0-.36.13.56.56,0,0,0-.2.33,2.2,2.2,0,0,0,0,.5v.36c0,.07,0,.23,0,.49a4,4,0,0,0,0,.45.19.19,0,0,0,0,.09.2.2,0,0,0,.08,0l.47,0,0,0V50l0,0c-.29,0-.6,0-.92,0L96,50l0,0v-.14l0,0,.37,0,.07,0a.13.13,0,0,0,0-.1,3.68,3.68,0,0,0,0-.43c0-.24,0-.42,0-.55V48c0-.09,0-.21,0-.36a2.76,2.76,0,0,0,0-.28.11.11,0,0,0,0-.08.34.34,0,0,0-.17,0H96l0,0v-.14l0,0A4.48,4.48,0,0,0,97.05,46.8Z" transform="translate(-68.69 -34.14)"/><path d="M96,50.11l-.1-.1v-.25l.1-.09h0l.34,0h0l0,0s0-.12,0-.41,0-.42,0-.55V48c0-.09,0-.2,0-.35s0-.23,0-.27,0,0-.1,0h-.33l-.11-.09V47l.09-.09h0a4.32,4.32,0,0,0,1-.24l.06,0,.18.13v.07c0,.07,0,.17,0,.3l0,0a1.56,1.56,0,0,1,.23-.26.74.74,0,0,1,.26-.15.86.86,0,0,1,.63,0l0,0,.06.12v0a7.6,7.6,0,0,0,0,.76v.13H98l0-.08a.34.34,0,0,0-.32-.23.39.39,0,0,0-.27.1.48.48,0,0,0-.17.27,1.92,1.92,0,0,0,0,.47v.36c0,.07,0,.23,0,.49s0,.41,0,.42h0l0,0,.46,0h0l.11.09V50l-.11.1h-.06a13.74,13.74,0,0,0-1.7,0Zm.38-3a.35.35,0,0,1,.17,0,.25.25,0,0,1,.11.17,1.89,1.89,0,0,1,0,.29c0,.16,0,.28,0,.37v.65c0,.13,0,.31,0,.56s0,.41,0,.44a.38.38,0,0,1-.08.17l0,0c.22,0,.42,0,.63,0l0,0a.22.22,0,0,1-.08-.15,2.06,2.06,0,0,1,0-.47c0-.26,0-.43,0-.5v-.36a2.34,2.34,0,0,1,0-.5l0,.06v-.37c0-.24,0-.43,0-.56A4.76,4.76,0,0,1,96.33,47.12Zm1.36.12a.54.54,0,0,1,.46.24c0-.17,0-.35,0-.54a.62.62,0,0,0-.38,0,.72.72,0,0,0-.19.11l-.2.22v0A.66.66,0,0,1,97.69,47.24Z" transform="translate(-68.69 -34.14)"/><path d="M99.17,47.71l-.13,0,0,0v-.41a2,2,0,0,1,1.15-.44,1.2,1.2,0,0,1,.63.15.9.9,0,0,1,.37.35,1.12,1.12,0,0,1,.11.5l0,.67v1a.56.56,0,0,0,0,.24.13.13,0,0,0,.07.06l.13,0h.19l0,0V50l0,0-.45,0-.48,0,0,0,0-.54L100,50a1,1,0,0,1-.39.07,1.08,1.08,0,0,1-.46-.09.69.69,0,0,1-.29-.27.82.82,0,0,1-.1-.42,1,1,0,0,1,.3-.76,3.73,3.73,0,0,1,1.67-.47.92.92,0,0,0-.22-.69.81.81,0,0,0-.59-.2,1.29,1.29,0,0,0-.35,0c-.1,0-.17.07-.18.1a2.48,2.48,0,0,0-.18.4Zm1.54.52a3.2,3.2,0,0,0-1.16.34.66.66,0,0,0-.23.55.45.45,0,0,0,.51.52,1.19,1.19,0,0,0,.88-.51Z" transform="translate(-68.69 -34.14)"/><path d="M99.58,50.17a1.19,1.19,0,0,1-.51-.11.81.81,0,0,1-.34-.32.9.9,0,0,1-.12-.48A1.11,1.11,0,0,1,99,48.4a3.6,3.6,0,0,1,1.62-.48.65.65,0,0,0-.18-.49.7.7,0,0,0-.5-.17,1,1,0,0,0-.31.05l-.13.06h0l-.15.37,0,0-.07.06h-.08l-.17,0-.08-.1v-.52l0,0a2,2,0,0,1,1.22-.46,1.33,1.33,0,0,1,.69.16,1,1,0,0,1,.42.4,1.25,1.25,0,0,1,.13.56l0,.67v1a.93.93,0,0,0,0,.18l.11,0,.23,0,.09.11V50l-.1.1h-.06a4.59,4.59,0,0,0-.91,0h0l-.13-.12v-.33l-.55.42A1.13,1.13,0,0,1,99.58,50.17Zm.11-1.82a1.5,1.5,0,0,0-.57.24.87.87,0,0,0-.26.67.72.72,0,0,0,.08.35.54.54,0,0,0,.25.22,1,1,0,0,0,.73,0l.16-.13a1,1,0,0,1-.25,0,.58.58,0,0,1-.64-.65.78.78,0,0,1,.28-.65Zm1.15.79,0,.71h.43a.27.27,0,0,1-.07-.08s-.05-.11-.05-.31v-1l0-.67a1,1,0,0,0-.1-.44.87.87,0,0,0-.32-.31,1.43,1.43,0,0,0-1.24,0h0A1,1,0,0,1,99.9,47a.93.93,0,0,1,.67.24,1,1,0,0,1,.26.78v1.12Zm-.26-.76a2.46,2.46,0,0,0-1,.29.51.51,0,0,0-.19.45c0,.28.12.4.39.4a1,1,0,0,0,.75-.44Zm-1.44-1.09v.21a1.87,1.87,0,0,1,.13-.29h0Z" transform="translate(-68.69 -34.14)"/><path d="M103.56,50l-.21-.52-.25-.57-.68-1.58a.63.63,0,0,0-.11-.21.3.3,0,0,0-.11-.06l-.21,0,0,0V46.9l0,0,.74,0,.77,0,0,0V47l0,0a1.43,1.43,0,0,0-.4,0,.12.12,0,0,0-.06.1,1.61,1.61,0,0,0,.14.43l.4,1,.32.75.33-.75.28-.69c.1-.26.17-.44.2-.55a1.33,1.33,0,0,0,.05-.21.08.08,0,0,0-.07-.09,1.42,1.42,0,0,0-.37,0l0,0V46.9l0,0,.62,0,.59,0,0,0V47l0,0a.82.82,0,0,0-.26.06.44.44,0,0,0-.12.16l-.36.71-.32.68L103.9,50Z" transform="translate(-68.69 -34.14)"/><path d="M104,50.14h-.51l-.24-.6-.92-2.14a.46.46,0,0,0-.09-.17l0,0h-.25l-.09-.1v-.25l.1-.1H102c.31,0,.55,0,.73,0s.51,0,.76,0h.06l.1.1v.25l-.09.1h0a2.1,2.1,0,0,0-.35,0s0,.09.13.37l.61,1.5.22-.49.27-.68a4.59,4.59,0,0,0,.2-.54.57.57,0,0,0,0-.16l-.32,0h0l-.1-.1v-.25l.1-.1h.06c.27,0,.47,0,.61,0s.31,0,.58,0h.06l.11.1v.25l-.1.1h0c-.16,0-.2,0-.2,0s0,0-.08.1l-.35.71-.32.68c0,.11-.25.57-.57,1.35Zm-.34-.25h.18l.07-.18-.42-1-.41-1a1.62,1.62,0,0,1-.14-.48A.24.24,0,0,1,103,47c-.21,0-.4,0-.69,0a.1.1,0,0,1,0,0,.68.68,0,0,1,.15.25ZM104.78,47a.21.21,0,0,1,.11.19,1,1,0,0,1-.06.25,5.13,5.13,0,0,1-.21.56l-.12.32.18-.4.36-.71a.46.46,0,0,1,.17-.21h-.43Z" transform="translate(-68.69 -34.14)"/><path d="M105.93,48.44a1.82,1.82,0,0,1,.16-.76,1.5,1.5,0,0,1,.57-.64,1.68,1.68,0,0,1,1-.26,1.5,1.5,0,0,1,1.13.44,1.54,1.54,0,0,1,.44,1.13,1.69,1.69,0,0,1-1.72,1.74,1.5,1.5,0,0,1-.83-.25,1.65,1.65,0,0,1-.54-.61A1.93,1.93,0,0,1,105.93,48.44Zm.63-.23a2.64,2.64,0,0,0,.12.83,1.27,1.27,0,0,0,.37.59.89.89,0,0,0,.6.22.78.78,0,0,0,.64-.31,1.43,1.43,0,0,0,.26-.93,2.14,2.14,0,0,0-.28-1.16.88.88,0,0,0-.8-.45.79.79,0,0,0-.67.31A1.46,1.46,0,0,0,106.56,48.21Z" transform="translate(-68.69 -34.14)"/><path d="M107.47,50.21a1.56,1.56,0,0,1-.9-.27,1.74,1.74,0,0,1-.58-.66,2,2,0,0,1-.19-.84,1.91,1.91,0,0,1,.18-.81,1.6,1.6,0,0,1,.61-.69,1.83,1.83,0,0,1,1-.29,1.63,1.63,0,0,1,1.69,1.7,1.79,1.79,0,0,1-.54,1.34A1.77,1.77,0,0,1,107.47,50.21Zm-.61-3.14-.13.08a1.3,1.3,0,0,0-.52.58,1.6,1.6,0,0,0-.16.71,1.63,1.63,0,0,0,.17.73,1.38,1.38,0,0,0,.49.56,1.26,1.26,0,0,0,.76.23,1.09,1.09,0,0,1-.5-.23,1.37,1.37,0,0,1-.41-.65,2.61,2.61,0,0,1-.13-.87,1.57,1.57,0,0,1,.27-1A.81.81,0,0,1,106.86,47.07Zm.89-.16a1,1,0,0,1,.63.47,2.38,2.38,0,0,1,.29,1.23,1.56,1.56,0,0,1-.28,1,.91.91,0,0,1-.17.17,2,2,0,0,0,.38-.28,1.56,1.56,0,0,0,.46-1.16,1.42,1.42,0,0,0-.4-1.05A1.34,1.34,0,0,0,107.75,46.91Zm-.28.21a.67.67,0,0,0-.57.27,1.27,1.27,0,0,0-.22.82,2.69,2.69,0,0,0,.11.79,1.21,1.21,0,0,0,.35.54.74.74,0,0,0,.51.19.69.69,0,0,0,.55-.27,1.33,1.33,0,0,0,.22-.85,2,2,0,0,0-.26-1.1A.75.75,0,0,0,107.47,47.12Z" transform="translate(-68.69 -34.14)"/><path d="M115.11,52.77H68.69V43.33h46.42Zm-46-.42h45.57V43.76H69.12Z" transform="translate(-68.69 -34.14)"/></svg>